<svg width="230" height="48" viewBox="0 0 230 48" fill="none" xmlns="http://www.w3.org/2000/svg">
<path fill-rule="evenodd" clip-rule="evenodd" d="M214.891 36.1168V17.1296L190.897 0L190.889 18.9221L214.891 36.1168Z" fill="#1B1D24"/>
<path fill-rule="evenodd" clip-rule="evenodd" d="M214.892 48L229.289 37.2892V25.4679L214.892 36.1707V48" fill="#1B1D24"/>
<path fill-rule="evenodd" clip-rule="evenodd" d="M14.0465 30.1366C14.7176 29.7929 15.325 29.3915 15.8756 28.9287C16.4274 28.4684 16.8941 27.973 17.2812 27.4485L14.4451 24.8952C14.1715 25.2046 13.8864 25.5074 13.5937 25.8054C13.2995 26.1054 12.9646 26.3677 12.5876 26.5937C12.2116 26.8202 11.779 27.0016 11.2944 27.1362C10.8074 27.2728 10.2354 27.3402 9.57672 27.3402C8.76841 27.3402 8.0429 27.1945 7.40134 26.9054C6.76007 26.6162 6.20942 26.2174 5.75316 25.71C5.29197 25.2046 4.93992 24.6061 4.69036 23.9195C4.44283 23.2307 4.32008 22.4888 4.32008 21.6922C4.32008 20.9146 4.44283 20.174 4.69036 19.4806C4.93992 18.7815 5.29197 18.1719 5.75316 17.6476C6.20942 17.1222 6.76905 16.7088 7.42855 16.4108C8.08951 16.1128 8.83297 15.9637 9.6575 15.9637C10.7041 15.9637 11.6021 16.1934 12.3546 16.6562C13.1064 17.1176 13.7593 17.7282 14.3088 18.489L17.1413 15.8014C16.2966 14.6426 15.2396 13.7553 13.9648 13.1381C12.689 12.5253 11.1989 12.2171 9.49277 12.2171C8.07822 12.2171 6.79279 12.4656 5.62577 12.9633C4.46223 13.4607 3.46284 14.1407 2.62847 14.9989C1.79265 15.8594 1.14559 16.8711 0.687009 18.0396C0.234214 19.1929 0.00607972 20.4283 0 21.7497V21.8556C0.00607972 23.2101 0.234214 24.4555 0.687009 25.59C1.14559 26.7371 1.79265 27.7345 2.62847 28.5758C3.46284 29.4172 4.45875 30.074 5.61332 30.5443C6.76905 31.0148 8.0429 31.2503 9.43689 31.2503C10.2805 31.2503 11.0938 31.1503 11.8723 30.9523C12.6534 30.7514 13.3757 30.4806 14.0465 30.1366" fill="#1B1D24"/>
<path fill-rule="evenodd" clip-rule="evenodd" d="M20.0994 29.2135C20.7042 29.8289 21.4331 30.318 22.2857 30.6803C23.1398 31.0434 24.0772 31.2237 25.1062 31.2237C26.1333 31.2237 27.0705 31.0434 27.9127 30.6803C28.7575 30.318 29.4807 29.8289 30.0869 29.2135C30.6928 28.5984 31.1665 27.879 31.5041 27.0548C31.8431 26.2325 32.0113 25.3506 32.0113 24.4083C32.0113 23.4658 31.8431 22.583 31.5041 21.7608C31.1665 20.9354 30.6928 20.2169 30.0869 19.6006C29.4807 18.9878 28.7575 18.5004 27.9127 18.1487C27.0705 17.797 26.1333 17.6187 25.1062 17.6187C24.0772 17.6187 23.1398 17.797 22.2857 18.1487C21.4331 18.5004 20.7042 18.9878 20.0994 19.6006C19.4931 20.2169 19.023 20.9354 18.6799 21.7608C18.3432 22.583 18.1738 23.4658 18.1738 24.4083C18.1738 25.3506 18.3432 26.2325 18.6799 27.0548C19.023 27.879 19.4931 28.5984 20.0994 29.2135ZM22.2053 23.1457C22.3413 22.7378 22.5391 22.3763 22.7967 22.0589C23.0521 21.7429 23.3781 21.4887 23.7733 21.2993C24.1681 21.109 24.612 21.0147 25.1062 21.0147C25.6009 21.0147 26.0427 21.109 26.4286 21.2993C26.8122 21.4887 27.1382 21.7429 27.404 22.0589C27.6706 22.3763 27.8661 22.7378 27.9946 23.1457C28.1234 23.5514 28.1874 23.9725 28.1874 24.4085C28.1874 24.8431 28.1234 25.2633 27.9946 25.6713C27.8661 26.0793 27.6706 26.4453 27.404 26.7701C27.1382 27.0964 26.8122 27.3529 26.4286 27.544C26.0427 27.7338 25.6009 27.8292 25.1062 27.8292C24.612 27.8292 24.1681 27.7338 23.7733 27.544C23.3781 27.3529 23.0521 27.0964 22.7967 26.7701C22.5391 26.4453 22.3413 26.0793 22.2053 25.6713C22.066 25.2633 21.9962 24.8431 21.9962 24.4085C21.9962 23.9725 22.066 23.5514 22.2053 23.1457Z" fill="#1B1D24"/>
<path fill-rule="evenodd" clip-rule="evenodd" d="M54.7961 30.7873V22.9143C54.7961 21.3221 54.3599 20.063 53.4887 19.1399C52.6173 18.2165 51.3559 17.7549 49.7063 17.7549C48.8797 17.7549 48.0859 17.9086 47.325 18.2165C46.5627 18.5248 45.9174 18.9585 45.3839 19.5199C45.2362 19.321 45.0489 19.1173 44.8211 18.9102C44.5915 18.7017 44.3245 18.5114 44.0249 18.34C43.7206 18.1683 43.3666 18.0271 42.9624 17.9174C42.5591 17.81 42.1028 17.7549 41.5872 17.7549C40.7439 17.7549 40.0105 17.9174 39.3858 18.2437C38.7628 18.5694 38.2506 18.9774 37.8453 19.4645L37.7081 18.0543H33.9111V30.7873H37.874V23.9476C37.874 23.1317 38.1064 22.4614 38.574 21.9355C39.0433 21.4126 39.6516 21.1487 40.4031 21.1487C41.082 21.1487 41.591 21.3569 41.9314 21.7738C42.2696 22.1906 42.4395 22.7777 42.4395 23.5374V30.7873H46.264V23.9476C46.264 23.1317 46.493 22.4614 46.9542 21.9355C47.4128 21.4126 48.0283 21.1487 48.7955 21.1487C49.4746 21.1487 49.9833 21.3569 50.3252 21.7738C50.6645 22.1906 50.8333 22.7777 50.8333 23.5374V30.7873H54.7961" fill="#1B1D24"/>
<path fill-rule="evenodd" clip-rule="evenodd" d="M78.1694 30.7873V22.9143C78.1694 21.3221 77.7334 20.063 76.8626 19.1399C75.9897 18.2165 74.7294 17.7549 73.0798 17.7549C72.2541 17.7549 71.4609 17.9086 70.7 18.2165C69.9369 18.5248 69.2924 18.9585 68.7586 19.5199C68.6109 19.321 68.4251 19.1173 68.1943 18.9102C67.9653 18.7017 67.6995 18.5114 67.3987 18.34C67.0956 18.1683 66.741 18.0271 66.3371 17.9174C65.9338 17.81 65.4752 17.7549 64.9611 17.7549C64.1186 17.7549 63.3841 17.9174 62.7608 18.2437C62.1383 18.5694 61.6233 18.9774 61.2188 19.4645L61.0825 18.0543H57.2861V30.7873H61.2484V23.9476C61.2484 23.1317 61.4803 22.4614 61.949 21.9355C62.4177 21.4126 63.0274 21.1487 63.7781 21.1487C64.457 21.1487 64.9657 21.3569 65.3059 21.7738C65.6443 22.1906 65.8148 22.7777 65.8148 23.5374V30.7873H69.6384V23.9476C69.6384 23.1317 69.868 22.4614 70.3289 21.9355C70.7863 21.4126 71.4006 21.1487 72.1705 21.1487C72.8494 21.1487 73.358 21.3569 73.6973 21.7738C74.0378 22.1906 74.2063 22.7777 74.2063 23.5374V30.7873H78.1694" fill="#1B1D24"/>
<path fill-rule="evenodd" clip-rule="evenodd" d="M93.0808 24.9231C93.0808 23.854 92.9448 22.8738 92.6686 21.9764C92.3953 21.0802 91.9856 20.3125 91.4439 19.6685C90.9031 19.0263 90.2381 18.5246 89.4501 18.1615C88.6603 17.7998 87.7423 17.6192 86.698 17.6192C85.6537 17.6192 84.718 17.8055 83.8918 18.1746C83.0661 18.548 82.3689 19.0397 81.8024 19.6562C81.2314 20.2699 80.7954 20.9916 80.4935 21.8141C80.1904 22.6375 80.0381 23.4923 80.0381 24.3797C80.0381 25.3948 80.1993 26.3221 80.5219 27.1624C80.8418 28.0052 81.3099 28.7243 81.9251 29.3225C82.5392 29.9188 83.2876 30.3851 84.1685 30.721C85.0475 31.0559 86.0373 31.223 87.1375 31.223C87.964 31.223 88.6965 31.1456 89.3386 30.9922C89.9816 30.8387 90.5378 30.6608 91.0033 30.463C91.4732 30.2628 91.8527 30.0611 92.1469 29.8505C92.4404 29.6431 92.6608 29.4931 92.8061 29.4034L91.1828 26.9321C90.8898 27.1481 90.4223 27.4092 89.7807 27.7072C89.1368 28.0052 88.3033 28.1538 87.277 28.1538C86.2304 28.1538 85.4082 27.8952 84.8136 27.3801C84.2186 26.8644 83.9088 26.263 83.8918 25.5762H93.0808V24.9231ZM83.8919 23.077C83.8919 22.8059 83.9518 22.5302 84.0711 22.2488C84.1892 21.9676 84.364 21.7111 84.5933 21.4745C84.8226 21.2405 85.1121 21.0466 85.4584 20.8917C85.8081 20.7383 86.2126 20.6591 86.6712 20.6591C87.1297 20.6591 87.5226 20.7383 87.8541 20.8917C88.1841 21.0466 88.4589 21.2405 88.6806 21.4745C88.9004 21.7111 89.0666 21.9676 89.1743 22.2488C89.2869 22.5302 89.3387 22.8059 89.3387 23.077H83.8919Z" fill="#1B1D24"/>
<path fill-rule="evenodd" clip-rule="evenodd" d="M100.275 18.4062C99.697 18.8042 99.2442 19.2222 98.9135 19.6567L98.7749 18.0545H94.9785V30.7875H98.9413V24.4876C98.9413 23.4759 99.2317 22.6928 99.8087 22.1414C100.385 21.588 101.142 21.3123 102.077 21.3123C102.628 21.3123 103.105 21.3755 103.508 21.5029L104.141 18.0545C103.904 17.9648 103.659 17.9011 103.412 17.864C103.164 17.8283 102.867 17.8103 102.517 17.8103C101.601 17.8103 100.854 18.0094 100.275 18.4062" fill="#1B1D24"/>
<path fill-rule="evenodd" clip-rule="evenodd" d="M109.357 22.0447C109.623 21.7364 109.943 21.4879 110.32 21.2984C110.695 21.1082 111.121 21.0116 111.601 21.0116C112.296 21.0116 112.854 21.1404 113.276 21.3927C113.699 21.6484 114.057 21.9373 114.353 22.2621L116.744 19.71C116.158 19.0757 115.434 18.5703 114.571 18.1906C113.71 17.8086 112.691 17.6192 111.517 17.6192C110.508 17.6192 109.577 17.7941 108.723 18.148C107.871 18.502 107.136 18.9871 106.523 19.6022C105.908 20.2162 105.426 20.9367 105.077 21.759C104.73 22.5846 104.555 23.4663 104.555 24.4077C104.555 25.4025 104.726 26.3179 105.063 27.1481C105.404 27.9829 105.876 28.702 106.483 29.3091C107.086 29.9154 107.815 30.3851 108.67 30.721C109.522 31.0559 110.471 31.223 111.517 31.223C112.709 31.223 113.739 31.0133 114.611 30.5965C115.483 30.1822 116.185 29.6837 116.718 29.1054L114.405 26.5521C114.133 26.8598 113.763 27.1447 113.306 27.4092C112.846 27.6692 112.277 27.8015 111.601 27.8015C111.121 27.8015 110.695 27.7015 110.32 27.5009C109.943 27.3027 109.623 27.0461 109.357 26.729C109.092 26.4121 108.889 26.0502 108.751 25.6422C108.613 25.2348 108.544 24.8234 108.544 24.4077C108.544 23.954 108.613 23.5249 108.751 23.1169C108.889 22.7104 109.092 22.3538 109.357 22.0447" fill="#1B1D24"/>
<path fill-rule="evenodd" clip-rule="evenodd" d="M130.229 24.9231C130.229 23.854 130.092 22.8738 129.816 21.9764C129.543 21.0802 129.132 20.3125 128.592 19.6685C128.052 19.0263 127.386 18.5246 126.597 18.1615C125.808 17.7998 124.891 17.6192 123.847 17.6192C122.8 17.6192 121.864 17.8055 121.038 18.1746C120.213 18.548 119.516 19.0397 118.949 19.6562C118.379 20.2699 117.942 20.9916 117.64 21.8141C117.337 22.6375 117.187 23.4923 117.187 24.3797C117.187 25.3948 117.347 26.3221 117.67 27.1624C117.988 28.0052 118.457 28.7243 119.072 29.3225C119.687 29.9188 120.432 30.3851 121.314 30.721C122.195 31.0559 123.184 31.223 124.287 31.223C125.111 31.223 125.843 31.1456 126.487 30.9922C127.128 30.8387 127.684 30.6608 128.151 30.463C128.62 30.2628 129.001 30.0611 129.294 29.8505C129.588 29.6431 129.808 29.4931 129.954 29.4034L128.331 26.9321C128.037 27.1481 127.569 27.4092 126.927 27.7072C126.286 28.0052 125.451 28.1538 124.424 28.1538C123.377 28.1538 122.556 27.8952 121.962 27.3801C121.366 26.8644 121.056 26.263 121.038 25.5762H130.229V24.9231ZM121.038 23.077C121.038 22.8059 121.099 22.5302 121.218 22.2488C121.337 21.9676 121.512 21.7111 121.74 21.4745C121.97 21.2405 122.259 21.0466 122.606 20.8917C122.955 20.7383 123.36 20.6591 123.819 20.6591C124.277 20.6591 124.67 20.7383 125.001 20.8917C125.331 21.0466 125.606 21.2405 125.827 21.4745C126.048 21.7111 126.213 21.9676 126.321 22.2488C126.433 22.5302 126.487 22.8059 126.487 23.077H121.038Z" fill="#1B1D24"/>
<path fill-rule="evenodd" clip-rule="evenodd" d="M148.842 30.7891V12.6779H144.688V19.6275H136.735V12.6779H132.582V30.7891H136.735V23.3495H144.688V30.7891H148.842" fill="#1B1D24"/>
<path fill-rule="evenodd" clip-rule="evenodd" d="M151.756 18.0541V25.9551C151.756 27.6558 152.186 28.942 153.049 29.8114C153.912 30.6796 155.086 31.1142 156.572 31.1142C157.323 31.1142 158.044 30.9531 158.731 30.6379C159.418 30.3234 159.974 29.9188 160.394 29.4303L160.505 30.7871H164.302V18.0541H160.368V24.9231C160.368 25.286 160.312 25.6388 160.204 25.9819C160.092 26.3259 159.93 26.625 159.709 26.8779C159.488 27.1313 159.221 27.3353 158.909 27.4898C158.598 27.6421 158.239 27.7184 157.838 27.7184C157.138 27.7184 156.611 27.5124 156.255 27.0956C155.898 26.6787 155.718 26.1085 155.718 25.3837V18.0541H151.756" fill="#1B1D24"/>
<path fill-rule="evenodd" clip-rule="evenodd" d="M166.853 12.6783V30.2999C167.494 30.5185 168.305 30.7264 169.287 30.9259C170.269 31.1244 171.31 31.2241 172.411 31.2241C173.602 31.2241 174.667 31.0504 175.602 30.7076C176.537 30.365 177.326 29.8839 177.968 29.2691C178.61 28.654 179.101 27.91 179.441 27.0429C179.779 26.1733 179.948 25.2233 179.948 24.1902C179.948 23.3217 179.82 22.5029 179.563 21.7344C179.308 20.9647 178.935 20.2845 178.451 19.6976C177.963 19.1097 177.361 18.6443 176.647 18.2992C175.933 17.9555 175.115 17.7838 174.199 17.7838C173.574 17.7838 172.947 17.8912 172.314 18.1089C171.682 18.3249 171.183 18.6243 170.815 19.0051V12.6783H166.853ZM171.449 21.8423C171.869 21.3652 172.521 21.1229 173.401 21.1229C173.858 21.1229 174.248 21.2192 174.571 21.4078C174.891 21.598 175.152 21.8423 175.353 22.14C175.558 22.4403 175.708 22.7788 175.808 23.1597C175.909 23.5408 175.96 23.9282 175.96 24.3259C175.96 25.413 175.672 26.2912 175.093 26.9603C174.516 27.6311 173.703 27.9651 172.658 27.9651C172.18 27.9651 171.808 27.9431 171.544 27.8965C171.277 27.8543 171.035 27.7845 170.815 27.6931V23.7582C170.815 22.9614 171.026 22.3214 171.449 21.8423Z" fill="#1B1D24"/>
</svg>
